Coordinates
version=1
nRows=29
nColumns=24
inDegrees=yes

Units are S.I. units (second, meters, Newtons, ...)
Angles are in degrees.

endheader
time	pelvis_tilt	pelvis_list	pelvis_rotation	pelvis_tx	pelvis_ty	pelvis_tz	hip_flexion_r	hip_adduction_r	hip_rotation_r	knee_angle_r	ankle_angle_r	subtalar_angle_r	mtp_angle_r	hip_flexion_l	hip_adduction_l	hip_rotation_l	knee_angle_l	ankle_angle_l	subtalar_angle_l	mtp_angle_l	lumbar_extension	lumbar_bending	lumbar_rotation
      0.50400000	      6.61414184	      1.89794147	      3.05814991	     -0.79530246	      1.01226414	      0.29510723	     15.73689637	     -2.78145550	     -7.58435265	     -2.13878002	     -1.69137972	     -8.25435942	     -0.82249785	    -20.03448025	      3.03548499	     -4.14987294	     -6.77084633	     12.19387961	    -12.22418486	     -1.04044366	    -18.77807893	     -0.84134725	     -1.88892791
      0.50816667	      6.64658326	      1.85998289	      3.03598638	     -0.78946246	      1.01148106	      0.29545251	     15.66761332	     -2.68930907	     -7.56768423	     -2.45451131	     -1.89051403	     -8.28234433	     -0.87316029	    -20.22395779	      2.93405874	     -4.15740707	     -7.20749321	     12.26888516	    -12.27945133	     -1.11465518	    -18.76424504	     -0.76350305	     -1.84510643
      0.51233333	      6.88518217	      1.69704143	      2.98170451	     -0.78350625	      1.01104934	      0.29601935	     15.30598801	     -2.41368002	     -7.41651919	     -2.67964401	     -2.10950914	     -8.49954049	     -7.75487419	    -20.60867338	      2.66027785	     -4.41168587	     -7.77388664	     13.07223491	    -11.22041662	    -12.45238805	    -18.98023895	     -0.54583836	     -1.71932899
      0.51650000	      7.06120669	      1.55834288	      2.99391559	     -0.77750610	      1.01058893	      0.29632014	     15.03507043	     -2.21285436	     -7.49872146	     -3.00080481	     -2.35168245	     -8.54411641	     -7.61249473	    -20.91679343	      2.41648622	     -4.52317767	     -8.29733603	     13.26390442	    -10.91132329	    -12.51626150	    -19.11539256	     -0.32105025	     -1.67382327
      0.52066667	      7.21136558	      1.42084088	      2.97430340	     -0.77148958	      1.01013224	      0.29672066	     14.80086025	     -2.00008303	     -7.52170503	     -3.35970980	     -2.63570999	     -8.68993407	     -7.46677613	    -21.17721080	      2.18155756	     -4.65765998	     -8.85538186	     13.42840231	    -10.62818170	    -12.57003034	    -19.22229166	     -0.11445749	     -1.66190563
      0.52483333	      7.34848083	      1.28306525	      2.93648733	     -0.76542363	      1.00969366	      0.29709529	     14.59141212	     -1.79092297	     -7.56421796	     -3.76284465	     -2.94270895	     -8.80393515	     -7.35282284	    -21.41927773	      1.96233731	     -4.76680586	     -9.42565923	     13.53783951	    -10.44476187	    -12.59822681	    -19.30273547	      0.09722256	     -1.61667040
      0.52900000	      7.40672755	      1.22190944	      2.89205322	     -0.75946800	      1.00919132	      0.29749566	     14.50687091	     -1.67398878	     -7.59777550	     -4.26334170	     -3.16845854	     -8.83844251	     -7.33464809	    -21.53319036	      1.83381291	     -4.79290997	    -10.05859261	     13.46310069	    -10.46217792	    -12.60218793	    -19.31986141	      0.20553439	     -1.60459721
      0.53316667	      7.64023844	      1.00552348	      2.88802846	     -0.75331568	      1.00903904	      0.29791142	     14.12830097	     -1.36859085	     -7.62616097	     -4.57586779	     -3.61877710	     -9.14265793	     -7.16818523	    -21.81735492	      1.49375986	     -4.97970243	    -10.74427188	     13.58842347	    -10.03832731	    -12.58172248	    -19.51150842	      0.51842830	     -1.56707941
      0.53733333	      7.75576525	      0.85482099	      2.82862421	     -0.74718692	      1.00874043	      0.29837017	     13.93737056	     -1.14273028	     -7.65531866	     -5.00956358	     -4.03274092	     -9.31242249	     -7.01229492	    -21.95590864	      1.26223374	     -5.11067296	    -11.45501984	     13.52694578	     -9.91340261	    -12.54535164	    -19.57026189	      0.73092619	     -1.51109540
      0.54150000	      7.82378880	      0.78969384	      2.76767324	     -0.74117446	      1.00843254	      0.29879254	     13.82762858	     -1.02654474	     -7.69244562	     -5.51316606	     -4.35399737	     -9.32799652	     -6.98584165	    -21.99970797	      1.13214323	     -5.15685450	    -12.23163075	     13.36338704	     -9.94260825	    -12.53714200	    -19.59666901	      0.84298170	     -1.49340453
      0.54566667	      8.02246638	      0.55466623	      2.67280293	     -0.73493105	      1.00836709	      0.29941034	     13.49123639	     -0.68267397	     -7.62142506	     -5.83828652	     -4.90631644	     -9.66507252	     -6.48356942	    -22.17006313	      0.79336110	     -5.47920620	    -13.06052827	     13.28990431	     -9.57398508	    -12.23112636	    -19.74218139	      1.15074020	     -1.37258467
      0.54983333	      8.08296344	      0.44748103	      2.63823742	     -0.72882761	      1.00820552	      0.29978590	     13.34735772	     -0.52870103	     -7.67451823	     -6.26707254	     -5.41660524	     -9.81525513	     -6.40368081	    -22.14595697	      0.61018591	     -5.49809662	    -13.93482506	     13.01561465	     -9.65295387	    -12.16893242	    -19.74497598	      1.33250930	     -1.34398110
      0.55400000	      8.23360324	      0.29626388	      2.57841799	     -0.72270850	      1.00822235	      0.30029581	     13.07671162	     -0.30162633	     -7.63455312	     -6.63907961	     -5.90838310	    -10.13412752	     -6.20512125	    -22.18457299	      0.36676441	     -5.64002270	    -14.87069596	     12.70600471	     -9.65069214	    -11.97136611	    -19.85690323	      1.55001906	     -1.31474224
      0.55816667	      8.38165194	      0.13938296	      2.42099764	     -0.71658604	      1.00825172	      0.30102299	     12.83876030	     -0.04783989	     -7.51730831	     -7.04724311	     -6.48887867	    -10.47463400	     -5.69064541	    -22.20043459	      0.13688781	     -5.92660142	    -15.85345584	     12.38646569	     -9.53241821	    -11.32852334	    -19.97801226	      1.73484555	     -1.18797372
      0.56233333	      8.42584777	      0.01567308	      2.37169005	     -0.71041615	      1.00824768	      0.30141920	     12.70059664	      0.10821120	     -7.58457323	     -7.48088826	     -6.88830180	    -10.45714290	     -5.60853375	    -22.04227718	     -0.07335588	     -6.03201901	    -16.92382947	     11.93336917	     -9.57569587	    -11.20805551	    -19.96144136	      1.92900018	     -1.13421273
      0.56650000	      8.53400309	     -0.12229226	      2.23941178	     -0.70429146	      1.00834689	      0.30207563	     12.49176457	      0.31843113	     -7.50262400	     -7.88050771	     -7.41173149	    -10.76667135	     -0.51808680	    -21.92892779	     -0.29247985	     -6.28746705	    -18.00425867	     11.12242388	     -9.95735665	     -1.32602632	    -20.02917284	      2.10430678	     -0.99705161
      0.57066667	      8.62521667	     -0.26053558	      2.16516888	     -0.69814724	      1.00851818	      0.30255623	     12.29220172	      0.49604262	     -7.52653415	     -8.29729172	     -7.81214439	    -10.83266462	     -0.54846260	    -21.74178423	     -0.52824450	     -6.46727160	    -19.20086203	     10.56806163	     -9.99033721	     -1.29239430	    -20.07337453	      2.31342737	     -0.96000702
      0.57483333	      8.74151711	     -0.41676047	      2.01057184	     -0.69205815	      1.00874419	      0.30330699	     12.06012653	      0.73403790	     -7.36480935	     -8.68298506	     -8.24982056	    -11.15408479	     -0.61408099	    -21.54361686	     -0.77771736	     -6.77310428	    -20.47030375	      9.96090437	    -10.08396633	     -1.10107968	    -20.16210733	      2.49573141	     -0.82915142
      0.57900000	      8.81426393	     -0.56741922	      1.91921867	     -0.68592562	      1.00898297	      0.30385538	     11.87439606	      0.92175827	     -7.36173943	     -9.10494414	     -8.53386459	    -11.15397262	     -0.63482322	    -21.24230377	     -1.04189101	     -7.00775600	    -21.82216992	      9.27821462	    -10.10383682	     -1.00642926	    -20.19056435	      2.70708842	     -0.74026571
      0.58316667	      8.86979325	     -0.72534133	      1.70575435	     -0.67983733	      1.00920416	      0.30477092	     11.70864324	      1.17011708	     -7.11866011	     -9.49960189	     -8.90525547	    -11.45111440	     -0.68942254	    -20.89314004	     -1.29709855	     -7.40580794	    -23.22900870	      8.50027495	    -10.30338400	     -0.62544976	    -20.20803809	      2.84860409	     -0.52026693
      0.58733333	      8.95766251	     -0.89881960	      1.61119548	     -0.67374668	      1.00953865	      0.30532911	     11.50179759	      1.37529841	     -7.11351252	     -9.93385372	     -9.04298148	    -11.39669971	     -0.70496154	    -20.51838805	     -1.60458741	     -7.66729195	    -24.71497513	      7.70986858	    -10.30415096	     -0.47290704	    -20.26959503	      3.09010609	     -0.41812904
      0.59150000	      9.13302266	     -2.10711376	     -0.70289534	     -0.66569469	      1.00923169	      0.31438046	     10.99694919	      3.77076077	     -3.51643246	     -9.86473081	     -9.90244633	    -14.34430269	     -1.07178007	    -20.63066042	     -3.59945714	    -14.30217473	    -25.39875414	      7.05761677	    -15.43669841	     -0.47290704	    -20.31637843	      3.21818388	      2.16760536
      0.59566667	      9.16263041	     -2.24743983	     -0.71811580	     -0.65981234	      1.00958201	      0.31469373	     10.84606850	      3.90423766	     -3.58754345	    -10.29618809	     -9.98652989	    -14.25683258	     -1.14040263	    -20.11434793	     -3.88324525	    -14.07236969	    -27.10672536	      6.28911707	    -15.23212177	     -0.47290704	    -20.33552774	      3.44304069	      2.28670366
      0.59983333	      9.11284843	     -2.37016248	     -0.74081768	     -0.65399201	      1.00981104	      0.31499757	     10.79937532	      4.01089177	     -3.68676491	    -10.76224318	    -10.02530632	    -14.08456019	     -1.25965203	    -19.44115708	     -4.15793881	    -13.86149339	    -28.93529923	      5.52856200	    -15.02031691	     -0.47290704	    -20.26933756	      3.65685484	      2.32563511
      0.60400000	      9.14856689	     -2.52022921	     -0.77613978	     -0.64815519	      1.01020815	      0.31533306	     10.62470844	      4.15479942	     -3.72614659	    -11.17654674	     -9.95457847	    -13.93006460	     -1.30976930	    -18.85406557	     -4.44841504	    -13.65614956	    -30.73448104	      4.52691797	    -14.85485361	     -0.47290704	    -20.29686872	      3.88177680	      2.40740186
      0.60816667	      9.04977060	     -2.64945237	     -0.75532449	     -0.64237891	      1.01039512	      0.31547049	     10.62159175	      4.24240859	     -3.92317517	    -11.63667032	     -9.88281279	    -13.62872030	     -1.40968745	    -18.02705913	     -4.73747580	    -13.39015271	    -32.68338934	      3.58815610	    -14.75122280	     -0.47290704	    -20.17069946	      4.11717811	      2.45684949
      0.61233333	      8.95567761	     -2.73643279	     -0.73375728	     -0.63666711	      1.01062976	      0.31557134	     10.61177652	      4.28148403	     -4.09961767	    -12.10777152	     -9.67287660	    -13.30594994	     -1.54212683	    -17.17263635	     -4.96101487	    -13.05616871	    -34.61531830	      2.44740073	    -14.72742509	     -0.47290704	    -20.06091395	      4.30433929	      2.43668617
      0.61650000	      8.93320881	     -2.91791015	     -0.72545617	     -0.63089252	      1.01095351	      0.31570580	     10.47754782	      4.42995438	     -4.25510814	    -12.48871005	     -9.51226407	    -12.99994898	     -1.60988762	    -16.38528572	     -5.29132614	    -12.82662898	    -36.57108284	      1.24890382	    -14.75303252	     -0.47290704	    -20.02694775	      4.60358296	      2.52499284
      0.62066667	      8.85178203	     -3.06164114	     -0.68253906	     -0.62519082	      1.01120051	      0.31572299	     10.41536298	      4.52162067	     -4.47036252	    -12.89145173	     -9.27100225	    -12.63974014	     -1.67532645	    -15.47888196	     -5.57772064	    -12.51601216	    -38.56008944	      0.00298561	    -14.85060914	     -0.47290704	    -19.93087004	      4.86723202	      2.56697147
